<?xml version="1.0" encoding="UTF-8" standalone="no"?>
<!-- Created with Inkscape (http://www.inkscape.org/) -->

<svg
   width="1792"
   height="256"
   id="svg2"
   sodipodi:version="0.32"
   inkscape:version="1.3.2 (091e20e, 2023-11-25, custom)"
   version="1.0"
   sodipodi:docname="prvicons.svg"
   inkscape:output_extension="org.inkscape.output.svg.inkscape"
   style=""
   inkscape:export-filename="prvicons.png"
   inkscape:export-xdpi="96"
   inkscape:export-ydpi="96"
   xmlns:inkscape="http://www.inkscape.org/namespaces/inkscape"
   xmlns:sodipodi="http://sodipodi.sourceforge.net/DTD/sodipodi-0.dtd"
   xmlns="http://www.w3.org/2000/svg"
   xmlns:svg="http://www.w3.org/2000/svg"
   xmlns:rdf="http://www.w3.org/1999/02/22-rdf-syntax-ns#"
   xmlns:cc="http://creativecommons.org/ns#"
   xmlns:dc="http://purl.org/dc/elements/1.1/">
  <metadata
     id="metadata2699">
    <rdf:RDF>
      <cc:Work
         rdf:about="">
        <dc:format>image/svg+xml</dc:format>
        <dc:type
           rdf:resource="http://purl.org/dc/dcmitype/StillImage" />
        <dc:title />
      </cc:Work>
    </rdf:RDF>
  </metadata>
  <sodipodi:namedview
     pagecolor="#5b5b5b"
     bordercolor="#666666"
     borderopacity="1"
     objecttolerance="10"
     gridtolerance="10"
     guidetolerance="10"
     inkscape:pageopacity="0"
     inkscape:pageshadow="2"
     inkscape:window-width="1366"
     inkscape:window-height="745"
     id="namedview2697"
     showgrid="true"
     inkscape:snap-bbox="true"
     inkscape:bbox-paths="true"
     inkscape:bbox-nodes="true"
     inkscape:snap-bbox-edge-midpoints="true"
     inkscape:snap-bbox-midpoints="true"
     inkscape:zoom="0.34132108"
     inkscape:cx="1406.3005"
     inkscape:cy="-196.29611"
     inkscape:window-x="-8"
     inkscape:window-y="-8"
     inkscape:window-maximized="1"
     inkscape:current-layer="layer10"
     inkscape:snap-page="true"
     inkscape:object-paths="true"
     showguides="true"
     inkscape:guide-bbox="true"
     inkscape:snap-grids="true"
     inkscape:snap-intersection-paths="true"
     inkscape:snap-smooth-nodes="true"
     inkscape:snap-nodes="true"
     inkscape:snap-global="true"
     showborder="true"
     inkscape:showpageshadow="true"
     inkscape:pagecheckerboard="true"
     inkscape:deskcolor="#d1d1d1">
    <inkscape:grid
       type="xygrid"
       id="grid6640"
       color="#d3d3d3"
       opacity="0.1254902"
       empcolor="#ffffff"
       empopacity="0.25098039"
       spacingx="1"
       spacingy="1"
       empspacing="1"
       originx="116"
       originy="-514"
       visible="true"
       enabled="true"
       units="px" />
    <inkscape:grid
       type="xygrid"
       id="grid5463"
       enabled="false"
       empspacing="0"
       spacingx="256"
       spacingy="256"
       visible="true"
       originx="0"
       originy="0"
       units="px" />
    <sodipodi:guide
       position="256,68"
       orientation="1,0"
       id="guide5465"
       inkscape:locked="false" />
    <sodipodi:guide
       position="512,77"
       orientation="1,0"
       id="guide5467"
       inkscape:locked="false" />
    <sodipodi:guide
       position="768,27"
       orientation="1,0"
       id="guide5469"
       inkscape:locked="false" />
    <sodipodi:guide
       position="1024,5.75"
       orientation="1,0"
       id="guide5471"
       inkscape:locked="false" />
    <sodipodi:guide
       position="1280,-2.5"
       orientation="1,0"
       id="guide5473"
       inkscape:locked="false" />
    <inkscape:grid
       type="xygrid"
       id="grid5475"
       spacingx="32"
       spacingy="32"
       enabled="true"
       originx="0"
       originy="0"
       units="px"
       visible="true" />
    <inkscape:grid
       type="xygrid"
       id="grid5500"
       spacingx="8"
       spacingy="8"
       enabled="false"
       empspacing="4"
       originx="0"
       originy="0"
       units="px"
       visible="true" />
    <sodipodi:guide
       position="1536,19.79899"
       orientation="1,0"
       id="guide14233"
       inkscape:locked="false" />
    <sodipodi:guide
       position="391,162"
       orientation="0,1"
       id="guide14345"
       inkscape:locked="false" />
  </sodipodi:namedview>
  <defs
     id="defs4" />
  <g
     inkscape:groupmode="layer"
     id="layer11"
     inkscape:label="File"
     style="display:none">
    <g
       id="file">
      <path
         id="path13909"
         d="m 120.52351,34.27051 -61.50583,61.49997 0.0381,-0.0176 c 3.37125,-3.36113 8.18374,-5.74988 12.94426,-5.75293 h 40 c 1.63893,-1.8e-4 2.9997,-1.37194 3,-3 v -40 c 0.005,-4.75993 2.14734,-9.32427 5.50883,-12.69433 z"
         style="fill:#ffffff;fill-rule:nonzero;stroke-width:1.5"
         inkscape:connector-curvature="0"
         sodipodi:nodetypes="ccccccccc" />
      <path
         sodipodi:nodetypes="cssssscccccccc"
         inkscape:connector-curvature="0"
         id="path13911"
         d="M 197.00002,32.0884 133.29293,32 c -8.28426,-0.0115 -14.29289,6.71573 -14.29289,15 v 40.49998 c 0,3.31371 -3.68629,6.50002 -7,6.50002 H 71.50006 c -8.28427,0 -15.50002,7.49346 -15.50002,15.77772 l 0.0426,111.21349 c -0.0105,1.64455 1.36588,3.02064 3.01171,3.00879 h 137.93687 c 1.64423,0.0105 3.00881,-1.3608 3.00881,-3 V 35.08692 c -0.005,-1.63832 -1.36086,-2.99862 -3,-2.99853 z"
         style="opacity:0.8;fill:#ffffff;fill-rule:nonzero;stroke-width:1.5" />
      <path
         inkscape:connector-curvature="0"
         style="fill:#000000;fill-opacity:0;fill-rule:nonzero;stroke-width:1.5"
         d="m 120.52351,34.27051 -61.50583,61.49998 0.0381,-0.0176 a 17.999993,17.999993 0 0 1 12.69726,-5.25293 h 40.49999 c 1.63892,-1.8e-4 2.99091,-1.37194 2.99121,-2.99999 L 115.253,47 a 17.999993,17.999993 0 0 1 5.25586,-12.69433 z"
         id="path13913" />
      <path
         inkscape:connector-curvature="0"
         style="fill:#000000;fill-opacity:0;fill-rule:nonzero;stroke-width:1.5"
         d="m 120.52351,34.27051 -61.50583,61.49997 0.0381,-0.0176 A 17.999993,17.999993 0 0 1 71.75302,90.49993 H 112.253 c 1.63893,-1.8e-4 2.99091,-1.37194 2.99121,-3 L 115.253,47 a 17.999993,17.999993 0 0 1 5.25587,-12.69433 z"
         id="path13915" />
      <path
         inkscape:connector-curvature="0"
         style="opacity:0;fill:url(#linearGradient13927);fill-rule:nonzero;stroke-width:1.5"
         d="m 120.52351,34.27051 -61.50583,61.49997 0.0381,-0.0176 A 17.999993,17.999993 0 0 1 71.75302,90.49993 H 112.253 c 1.63893,-1.8e-4 2.99091,-1.37194 2.99121,-3 L 115.253,47 a 17.999993,17.999993 0 0 1 5.25587,-12.69433 z"
         id="path13917" />
    </g>
  </g>
  <g
     inkscape:groupmode="layer"
     id="layer7"
     inkscape:label="Disc"
     style="display:none">
    <g
       id="disc">
      <path
         inkscape:connector-curvature="0"
         style="opacity:0.8;fill:#ffffff;fill-rule:nonzero;stroke-width:1.57817"
         d="m 127.99994,33.508001 a 94.426188,94.95468 0 0 0 -94.426192,94.954679 94.426188,94.95468 0 0 0 94.426192,94.95468 94.426188,94.95468 0 0 0 94.42618,-94.95468 94.426188,94.95468 0 0 0 -94.42618,-94.954679 z m 21.92827,12.354632 a 1.5745987,1.5834115 0 0 1 0.46726,0.04938 c 22.16765,5.862407 41.07539,20.178866 52.5584,39.808641 a 1.5739272,1.5827363 0 0 1 -1.26956,2.404775 1.5739272,1.5827363 0 0 1 -1.44157,-0.797477 C 189.18637,68.427379 170.97078,54.627805 149.59631,48.975169 a 1.5745987,1.5834115 0 0 1 0.3319,-3.112615 z m -3.25817,12.215524 a 1.5739272,1.5827363 0 0 1 0.46725,0.06489 c 18.94126,4.992749 35.09979,17.185927 44.91382,33.907984 a 1.5739272,1.5827363 0 0 1 -1.26941,2.404775 1.5739272,1.5827363 0 0 1 -1.44157,-0.797477 C 179.95417,77.665994 164.48826,65.987344 146.33797,61.203116 a 1.5739272,1.5827363 0 0 1 0.33207,-3.124975 z m -3.26132,12.243346 a 1.5742199,1.5830306 0 0 1 0.46725,0.04938 c 15.7144,4.122774 29.12371,14.192781 37.26938,28.007295 a 1.5739272,1.5827363 0 0 1 -1.26326,2.407872 1.5739272,1.5827363 0 0 1 -1.44472,-0.794371 C 170.72243,86.907648 158.00606,77.350048 143.0798,73.434038 a 1.5742199,1.5830306 0 0 1 0.32892,-3.112614 z m -3.65776,12.21861 a 1.5739272,1.5827363 0 0 1 0.46725,0.06188 c 12.09442,3.258892 22.4086,11.217851 28.66905,22.122097 a 1.5739272,1.5827363 0 0 1 -1.29096,2.39241 1.5739272,1.5827363 0 0 1 -1.43559,-0.8099 C 160.31714,96.128286 150.69291,88.70082 139.40363,85.658899 a 1.5739272,1.5827363 0 0 1 0.34733,-3.11877 z M 127.99994,93.645981 A 34.622932,34.816713 0 0 1 162.62287,128.4627 34.622932,34.816713 0 0 1 127.99994,163.27941 34.622932,34.816713 0 0 1 93.377,128.4627 34.622932,34.816713 0 0 1 127.99994,93.645981 Z M 88.551192,149.8275 a 1.5740759,1.5828858 0 0 1 1.287973,0.79129 c 5.843565,10.17832 15.467795,17.60578 26.757075,20.6477 a 1.5739272,1.5827363 0 0 1 -0.35048,3.1157 1.5739272,1.5827363 0 0 1 -0.4641,-0.0587 C 103.68724,171.0646 93.373066,163.10565 87.112609,152.20138 a 1.5740759,1.5828858 0 0 1 1.438583,-2.37386 z m -12.276663,6.31485 a 1.5739272,1.5827363 0 0 1 1.287973,0.79129 c 7.714934,13.08403 20.431309,22.64163 35.357568,26.55764 a 1.5739272,1.5827363 0 0 1 -0.32891,3.1188 1.5739272,1.5827363 0 0 1 -0.46726,-0.0557 C 96.409497,182.4316 83.000191,172.36156 74.854516,158.54708 a 1.5739272,1.5827363 0 0 1 1.420013,-2.40481 z m -11.050225,6.31795 a 1.5739272,1.5827363 0 0 1 1.435436,0.80675 c 9.385963,15.99233 24.851871,27.67098 43.00216,32.45521 a 1.5739272,1.5827363 0 0 1 -0.33207,3.11879 1.5739272,1.5827363 0 0 1 -0.46725,-0.0587 c -18.941264,-4.99278 -35.099788,-17.18594 -44.913816,-33.908 a 1.5739272,1.5827363 0 0 1 1.27554,-2.41403 z m -10.905752,6.33342 a 1.5739272,1.5827363 0 0 1 1.438583,0.80364 c 11.056362,18.90058 29.27196,32.70015 50.646425,38.35277 a 1.5739272,1.5827363 0 0 1 -0.3319,3.1188 1.5739272,1.5827363 0 0 1 -0.46726,-0.0557 C 83.436755,205.15088 64.529013,190.83441 53.046001,171.20465 a 1.5739272,1.5827363 0 0 1 1.272551,-2.41097 z"
         id="circle7394" />
      <path
         style="opacity:0;fill:#ff0000;fill-rule:nonzero;stroke-width:1.57817"
         id="path7394"
         sodipodi:type="arc"
         sodipodi:cx="141.43097"
         sodipodi:cy="84.339088"
         sodipodi:rx="1.618104"
         sodipodi:ry="0.20710997"
         sodipodi:start="4.9741884"
         sodipodi:end="5.7595865"
         sodipodi:open="true"
         d="m 141.84977,84.139036 a 1.618104,0.20710997 0 0 1 0.98252,0.0965"
         sodipodi:arc-type="arc" />
      <path
         inkscape:connector-curvature="0"
         style="fill:#ffffff;fill-rule:nonzero;stroke-width:1.57817"
         d="m 127.99996,31.925486 c -53.00063,0 -95.999955,43.23994 -95.999955,96.537254 0,53.29732 42.999325,96.53726 95.999955,96.53726 53.00064,0 95.99996,-43.23994 95.99996,-96.53726 0,-53.297314 -42.99932,-96.537254 -95.99996,-96.537254 z m 0,3.165156 c 25.64978,0 48.8643,10.444969 65.66492,27.339654 l -5.04094,5.069195 c 5.53605,5.366291 10.38074,11.470372 14.32996,18.221284 1.12414,1.832446 -1.66096,3.483659 -2.71114,1.607304 -3.81245,-6.517401 -8.49316,-12.411273 -13.84429,-17.590725 l -6.67625,6.713594 c 4.76506,4.589637 8.93445,9.816365 12.32891,15.600139 1.13029,1.833845 -1.66237,3.489626 -2.71097,1.607304 -3.25802,-5.550998 -7.26232,-10.565939 -11.84325,-14.96958 l -6.67624,6.713594 c 3.99375,3.812454 7.485,8.159971 10.32471,12.975902 1.10353,1.824043 -1.64711,3.462963 -2.70798,1.613488 -2.70311,-4.584347 -6.03116,-8.724 -9.8422,-12.351527 l -7.2203,7.260695 c 2.89322,2.909228 5.43139,6.198627 7.51239,9.823107 1.04923,1.82788 -1.67732,3.41046 -2.72656,1.58258 -1.94234,-3.38313 -4.31118,-6.452548 -7.01114,-9.167823 l -5.56045,5.591573 c -6.5527,-6.589324 -15.60298,-10.66695 -25.58918,-10.66695 -19.97224,0 -36.196703,16.31527 -36.196703,36.39929 H 35.147545 c 0,-51.586721 41.552873,-93.372098 92.852415,-93.372098 z m 0,60.137964 c 18.27116,0 33.04917,14.860694 33.04917,33.234134 0,18.37345 -14.77801,33.23414 -33.04917,33.23414 -18.27115,0 -33.049163,-14.86069 -33.049163,-33.23414 0,-18.37344 14.778013,-33.234134 33.049163,-33.234134 z m 36.19671,33.234134 h 56.65571 c 0,51.58673 -41.55287,93.37211 -92.85242,93.37211 -25.64977,0 -48.86429,-10.44497 -65.664913,-27.33966 l 5.040942,-5.0692 c -5.53605,-5.36628 -10.380743,-11.47037 -14.32996,-18.22128 -0.622112,-1.02632 0.07554,-2.34799 1.26956,-2.40477 0.591422,-0.028 1.148537,0.28014 1.441573,0.79747 3.812457,6.51741 8.493163,12.41128 13.844295,17.59072 l 6.676247,-6.7136 c -4.765061,-4.58963 -8.934449,-9.81636 -12.328913,-15.60013 -0.622111,-1.02626 0.07554,-2.34788 1.269403,-2.40478 0.591422,-0.028 1.148537,0.28015 1.441573,0.79748 3.258018,5.55099 7.262318,10.56594 11.843247,14.96957 l 6.676246,-6.71359 c -3.993755,-3.81245 -7.485006,-8.15998 -10.324716,-12.97589 -0.624472,-1.02461 0.06924,-2.34784 1.263265,-2.40788 0.591894,-0.0299 1.150268,0.27719 1.44472,0.79438 2.703107,4.58434 6.031158,8.724 9.842199,12.35153 l 7.220299,-7.2607 c -2.893219,-2.90922 -5.431395,-6.19862 -7.51239,-9.82311 -0.61204,-1.03171 0.09757,-2.34606 1.290963,-2.39241 0.591895,-0.0232 1.146806,0.28972 1.435593,0.80984 1.942346,3.38312 4.311185,6.45301 7.011144,9.16782 l 5.560443,-5.59156 c 6.55271,6.58932 15.60298,10.66694 25.58918,10.66694 19.97224,0 36.19671,-16.31527 36.19671,-36.3993 z"
         id="path7396" />
      <path
         d="m -114.15011,-172.78639 a 1.618104,0.20710997 0 0 1 0.98252,0.0965"
         sodipodi:open="true"
         sodipodi:end="5.7595865"
         sodipodi:start="4.9741884"
         sodipodi:ry="0.20710997"
         sodipodi:rx="1.618104"
         sodipodi:cy="-172.58633"
         sodipodi:cx="-114.56891"
         sodipodi:type="arc"
         id="path7398"
         style="opacity:0;fill:#ff0000;fill-rule:nonzero;stroke-width:1.57817"
         transform="scale(-1)"
         sodipodi:arc-type="arc" />
    </g>
  </g>
  <g
     inkscape:groupmode="layer"
     id="layer6"
     inkscape:label="Folder"
     style="display:none">
    <g
       id="folder">
      <path
         sodipodi:nodetypes="sscsscssccssss"
         inkscape:connector-curvature="0"
         id="path13903"
         d="M 37.25,56 C 34.33037,56 32,58.41347 32,61.25 V 92 c 1.43082,-1.188906 3.012885,-2 4.999995,-2 H 219 c 1.98715,0 3.56918,0.811094 5,2 V 78 c 0,-2.882549 -2.11744,-6 -5,-6 H 104 c -0.59745,1.6e-5 -2.07483,-0.236884 -2.49708,-0.659179 C 101.08052,70.918421 101,69.597301 101,69 v -8 c 0,-2.88255 -2.117445,-5 -4.999995,-5 z"
         style="opacity:0.8;fill:#ffffff;fill-rule:nonzero;stroke-width:6" />
      <path
         sodipodi:nodetypes="sssssssss"
         inkscape:connector-curvature="0"
         id="path13905"
         d="M 36.999995,93.999995 C 34.117445,93.999995 32,96.117455 32,99.000005 V 194.75 c 0,2.88255 2.36745,5.25 5.25,5.25 h 181.5 c 2.88255,0 5.25,-2.36745 5.25,-5.25 V 99.000005 c 0,-2.88255 -2.1174,-5.00001 -4.99995,-5.00001 z"
         style="fill:#ffffff;fill-rule:nonzero;stroke-width:6" />
    </g>
  </g>
  <g
     inkscape:groupmode="layer"
     id="layer5"
     inkscape:label="Folder_up"
     style="display:none">
    <g
       id="folder-up">
      <path
         sodipodi:nodetypes="sscsscssccssss"
         inkscape:connector-curvature="0"
         id="path7347"
         d="M 36.999995,56.000004 C 34.080365,56.000004 32,58.161766 32,60.999998 v 30.999998 c 1.43082,-1.189613 3.012885,-1.999994 4.999995,-1.999994 H 219.00005 c 1.9872,0 3.5691,0.810381 4.99995,1.999994 v -14.28015 c 0,-2.88428 -2.1174,-5.71984 -4.99995,-5.71984 H 104 c -0.59745,1.5e-5 -2.16855,-0.08075 -2.5908,-0.503327 C 100.9868,71.074025 101,69.597665 101,69.000006 v -7.790062 c 0,-2.88428 -2.1174,-5.20994 -4.99995,-5.20994 z"
         style="opacity:0.48;fill:#ffffff;fill-rule:nonzero;stroke-width:6.0018" />
      <path
         style="opacity:0.6;fill:#ffffff;fill-rule:nonzero;stroke-width:6.0018"
         d="m 36.999995,94.000003 c -2.88255,0 -4.999995,2.11572 -4.999995,5 v 95.790057 c 0,2.88428 2.36745,5.25315 5.25,5.25315 h 181.5 c 2.88255,0 5.25,-2.36887 5.25,-5.25315 V 99.000003 c 0,-2.88428 -2.11746,-5 -5.00001,-5 z m 87.935545,17.501827 c 1.2125,-0.0169 2.38022,0.4579 3.23731,1.31622 l 19.52344,19.53515 c 4.26783,4.23493 -2.11821,10.62186 -6.34863,6.34951 l -11.82129,-11.82838 -0.0175,38.67162 v 0.003 c 0.002,1.44518 1.61326,3.01353 3.01171,3.01353 h 19.5 c 6.13064,-0.15015 6.13064,9.12916 0,8.97901 h -19.5 c -6.58334,0 -11.98534,-5.35231 -11.98534,-11.99548 l 0.015,-38.73025 -11.85058,11.88408 c -4.22333,4.42628 -10.766405,-2.10261 -6.3545,-6.34072 l 19.47657,-19.53808 c 0.82648,-0.8292 1.94398,-1.30256 3.11425,-1.31915 z"
         id="path7349"
         inkscape:connector-curvature="0"
         sodipodi:nodetypes="ssssssssscccccccsccsccccccc" />
    </g>
  </g>
  <g
     inkscape:groupmode="layer"
     id="g1"
     inkscape:label="Drive"
     style="display:none">
    <g
       id="drive">
      <path
         style="opacity:0.2;fill:#ffffff;stroke-width:1.49991"
         d="m 63.88208,150.50137 h 128.23586 c 8.51361,0 15.36759,6.77664 15.36759,15.19427 v 41.61592 c 0,8.41763 -6.85398,15.19426 -15.36759,15.19426 H 63.88208 c -8.513603,0 -15.367588,-6.77663 -15.367588,-15.19426 v -41.61592 c 0,-8.41763 6.853985,-15.19427 15.367588,-15.19427 z"
         id="rect7450"
         inkscape:connector-curvature="0" />
      <path
         id="path7424"
         d="m 63.880705,33.494372 c -8.513689,0 -15.366354,6.776664 -15.366354,15.194293 V 165.69581 c 0,-8.41763 6.852665,-15.19429 15.366354,-15.19429 H 192.11923 c 8.51369,0 15.36635,6.77666 15.36635,15.19429 V 48.688665 c 0,-8.417629 -6.85266,-15.194293 -15.36635,-15.194293 z"
         style="fill:#ffffff;stroke-width:0.152647"
         inkscape:connector-curvature="0" />
      <path
         style="fill:#ffffff;fill-rule:nonzero;stroke-width:0.152647"
         d="m 63.87776,32.000004 c -9.323333,0 -16.877811,7.46751 -16.877811,16.68559 V 165.69567 207.31443 C 46.999949,216.5325 54.554427,224 63.87776,224 h 128.24437 c 4.07896,0 7.81813,-1.42861 10.73536,-3.80882 3.75073,-3.06026 6.14245,-7.69158 6.14245,-12.87675 V 165.69567 48.685594 c 0,-9.21808 -7.55448,-16.68559 -16.87781,-16.68559 z m 0,2.976745 h 128.24437 c 7.70417,0 13.86663,6.091663 13.86663,13.708845 V 156.19411 c -3.04709,-4.33984 -8.11673,-7.18403 -13.86663,-7.18403 H 63.87776 c -5.7499,0 -10.819537,2.84419 -13.866626,7.18403 V 48.685594 c 0,-7.617182 6.16246,-13.708845 13.866626,-13.708845 z m 0,117.010071 h 128.24437 c 7.70417,0 12.87786,6.396 12.87786,14.01318 v 40.99999 c 0,7.61718 -5.29583,13.00001 -13,13.00001 H 63.999987 c -7.704165,0 -12.999992,-5.38283 -12.999992,-13.00001 V 166 c 0,-7.61718 5.173599,-14.01318 12.877765,-14.01318 z"
         id="rect7426"
         inkscape:connector-curvature="0"
         sodipodi:nodetypes="sscssscscsssssscsscsssssssssss" />
      <path
         style="fill:#ffffff;fill-rule:nonzero;stroke-width:1.49991"
         d="m 186.00002,164.00665 c 3.31034,0 5.99238,2.65186 5.99238,5.92487 v 0.14361 c 0,3.27299 -2.68204,5.92487 -5.99238,5.92487 -3.31049,0 -6.02143,-2.65188 -6.02143,-5.92487 v -0.14361 c 0,-3.27301 2.71094,-5.92487 6.02143,-5.92487 z"
         id="rect7434"
         inkscape:connector-curvature="0"
         sodipodi:nodetypes="sssssss" />
      <path
         style="fill:#ffffff;fill-rule:nonzero;stroke-width:1.49991"
         d="m 62.477103,163.9889 c -0.830031,0.0176 -1.490647,0.69566 -1.47627,1.517 v 42.01788 c -0.14822,2.11972 3.152045,2.11972 3.010643,0 V 165.5059 c 0.01467,-0.84367 -0.680329,-1.53146 -1.534224,-1.517 z m 9.003174,0 c -0.830031,0.0176 -1.490647,0.69566 -1.47627,1.517 v 42.01788 c -0.14822,2.11972 3.152045,2.11972 3.010643,0 V 165.5059 c 0.01467,-0.84367 -0.68033,-1.53146 -1.534225,-1.517 z m 9.003174,0 c -0.841889,0.002 -1.519699,0.68452 -1.505321,1.517 v 42.01788 c 0,2.00349 3.039545,2.00349 3.039545,0 V 165.5059 c 0.01467,-0.84367 -0.680329,-1.53146 -1.534224,-1.517 z m 9.003174,0 c -0.841889,0.002 -1.519699,0.68452 -1.505322,1.517 v 42.01788 c -0.14822,2.11972 3.152045,2.11972 3.010643,0 V 165.5059 c 0.01438,-0.83239 -0.662543,-1.51531 -1.505321,-1.517 z m 8.974271,0 c -0.830032,0.0176 -1.490648,0.69566 -1.476271,1.517 v 42.01788 c -0.14822,2.11972 3.152045,2.11972 3.010643,0 V 165.5059 c 0.01467,-0.84367 -0.680329,-1.53146 -1.534224,-1.517 z"
         id="path7444"
         inkscape:connector-curvature="0"
         sodipodi:nodetypes="ccccccccccccccccssccccccccccccccc" />
    </g>
  </g>
  <g
     inkscape:groupmode="layer"
     id="layer3"
     inkscape:label="Drive_local"
     style="display:none">
    <g
       id="drive-local">
      <g
         id="g12">
        <path
           style="opacity:0.2;fill:#ffffff;stroke-width:1.50742"
           d="M 64.296356,151.6304 H 170.88292 c 7.0763,0 12.77317,5.62874 12.77317,12.62048 v 33.62692 c 0,6.99174 -5.69687,12.62048 -12.77317,12.62048 H 64.296356 c -7.076302,0 -12.773169,-5.62874 -12.773169,-12.62048 v -33.62692 c 0,-6.99174 5.696867,-12.62048 12.773169,-12.62048 z"
           id="rect7418"
           inkscape:connector-curvature="0" />
        <path
           style="fill:#ffffff;stroke-width:0.153411"
           d="M 64.295214,53.50367 C 57.218853,53.48891 51.523071,59.132426 51.523071,66.124181 v 97.187149 c 0,-6.99175 5.695782,-12.63528 12.772143,-12.62051 l 106.177006,0.22161 c 7.07636,0.0147 12.77214,5.62876 12.77214,12.62051 V 66.345793 c 0,-6.991756 -5.69578,-12.605747 -12.77214,-12.620511 l -53.08851,-0.110769 z"
           id="rect7413"
           inkscape:connector-curvature="0"
           sodipodi:nodetypes="sscsscsscs" />
        <path
           style="fill:#ffffff;fill-rule:nonzero;stroke-width:0.185559"
           d="m 64.292364,52.000001 c -7.890259,0 -14.292353,6.32578 -14.292353,14.121722 v 98.141547 33.61501 c 0,7.79595 6.402094,14.12172 14.292353,14.12172 H 169.70766 c 7.89028,0 14.29236,-6.32577 14.29236,-14.12172 V 164.26327 66.121723 c 0,-7.795942 -6.40208,-14.121722 -14.29236,-14.121722 z m 0,2.995339 H 169.70766 c 6.26235,0 11.261,4.938812 11.261,11.126383 v 89.465087 c -2.61637,-3.30981 -6.68367,-5.44526 -11.261,-5.44526 H 64.292364 c -4.577309,0 -8.644593,2.13545 -11.261,5.44526 V 66.121723 c 0,-6.187571 4.998666,-11.126383 11.261,-11.126383 z m 0,98.14155 H 169.70766 c 6.26235,0 10.29232,4.67555 10.29232,10.8631 V 197 c -2e-5,6.18757 -4.73767,10.99999 -11.00002,10.99999 H 64.999971 c -6.262333,0 -10.999966,-4.81242 -10.999996,-10.99999 -4.67e-4,-71.60225 0,-21.66667 0,-33.00001 0,-6.18755 4.030055,-10.8631 10.292389,-10.8631 z"
           id="rect7312"
           inkscape:connector-curvature="0"
           sodipodi:nodetypes="sscsssscsssssscsscssssssssscs" />
        <path
           style="fill:#ffffff;fill-rule:nonzero;stroke-width:1.50742"
           d="m 167.00001,162.42011 c 2.90732,0 5.2695,2.351 5.2695,5.2303 v 0.11929 c 0,2.87929 -2.36218,5.2303 -5.2695,5.2303 -2.90732,0 -5.26962,-2.35101 -5.26962,-5.2303 v -0.11929 c 0,-2.8793 2.3623,-5.2303 5.26962,-5.2303 z"
           id="rect7316"
           inkscape:connector-curvature="0"
           sodipodi:nodetypes="sssssss" />
        <path
           style="fill:#ffffff;fill-rule:nonzero;stroke-width:1.50742"
           d="m 95.652573,162.47846 c 0.779836,0.0864 1.364282,0.74629 1.347404,1.52154 v 34.71022 c 0,2.01291 -3.055898,2.01291 -3.055898,0 V 164 c -0.02464,-0.91682 0.787228,-1.63779 1.708494,-1.52154 z m -7.968247,10e-6 c 0.779836,0.0864 1.364281,0.74629 1.347403,1.52155 v 34.7102 c 0.0616,2.06271 -3.099385,2.06271 -3.03175,0 V 164 c -0.02464,-0.90611 0.772444,-1.62195 1.684347,-1.52153 z m -8.000032,1e-5 c 0.779836,0.0864 1.364282,0.74629 1.347404,1.52155 v 34.71019 c 0.0616,2.06271 -3.099386,2.06271 -3.031751,0 V 164 c -0.02464,-0.90611 0.772444,-1.62195 1.684347,-1.52152 z m -8.031817,2e-5 c 0.779836,0.0864 1.364405,0.74628 1.347527,1.52154 v 34.7102 c 0.0616,2.06013 -3.096798,2.06013 -3.031874,0 v -34.71022 c -0.02464,-0.90611 0.772444,-1.62196 1.684347,-1.52152 z m -8.000032,-4e-5 c 0.779836,0.0864 1.364405,0.74629 1.347527,1.52154 v 34.71022 c 0.0616,2.06015 -3.096675,2.06015 -3.031874,0 v -34.71023 c -0.02464,-0.90611 0.772444,-1.62195 1.684347,-1.52153 z"
           id="path7359"
           inkscape:connector-curvature="0"
           sodipodi:nodetypes="ccsscccccccccccccccccccccccccc" />
      </g>
      <path
         id="path28027-5"
         style="fill:#ffffff;fill-rule:nonzero;stroke-width:1.49974"
         d="m 211.99992,156 c 0,0.82725 1.17304,1.99992 2,1.99999 h 15 c 0.83041,-7e-5 2.00315,-1.16932 2,-1.99999 v -12.00001 c -0.0162,-4.38506 -3.80528,-7.81099 -8,-8.49999 l 5e-5,-95.000001 c -10e-4,-11.396423 -9.51635,-20.515026 -21.00292,-20.499996 l -66.00293,-4e-6 c -11.9766,0.0159 -20.98972,9.016733 -20.98972,20.999984 v 13.499991 l 3.10495,-0.09819 V 40.901793 c 0,-10.516597 7.3754,-17.887773 17.89062,-17.901798 l 66,5e-6 c 9.88874,-0.0135 17.99985,7.730233 18.00105,17.499998 l -5e-5,94.997072 c -4.20141,0.68743 -7.99971,4.10781 -8.00105,8.50292 z m 3,4 v 8.00001 c 9e-5,0.82839 1.17505,1.9999 2.00315,1.99999 h 8.99685 c 0.8281,-9e-5 1.99991,-1.1716 2,-1.99999 V 160 h -3 v 7 h -7 v -7 z"
         inkscape:connector-curvature="0"
         sodipodi:nodetypes="cccccccccsccsccccccccccccccccc" />
    </g>
  </g>
  <g
     inkscape:groupmode="layer"
     id="layer2"
     inkscape:label="Drive_network"
     style="display:none">
    <g
       id="drive-network">
      <g
         id="g15">
        <path
           inkscape:connector-curvature="0"
           style="opacity:0.2;fill:#ffffff;stroke-width:1.50742"
           d="M 64.296356,151.63042 H 170.88292 c 7.0763,0 12.77317,5.62874 12.77317,12.62048 v 33.62692 c 0,6.99174 -5.69687,12.62048 -12.77317,12.62048 H 64.296356 c -7.076302,0 -12.773169,-5.62874 -12.773169,-12.62048 V 164.2509 c 0,-6.99174 5.696867,-12.62048 12.773169,-12.62048 z"
           id="rect7418-6" />
        <path
           style="fill:#ffffff;stroke-width:0.153411"
           d="M 64.295214,53.50369 C 57.218853,53.48893 51.523071,59.132446 51.523071,66.124201 v 97.187149 c 0,-6.99175 5.695782,-12.63528 12.772143,-12.62051 l 106.177006,0.22161 c 7.07636,0.0147 12.77214,5.62876 12.77214,12.62051 V 66.345813 c 0,-6.991756 -5.69578,-12.605747 -12.77214,-12.620511 l -53.08851,-0.110769 z"
           id="rect7413-9"
           inkscape:connector-curvature="0"
           sodipodi:nodetypes="sscsscsscs" />
        <path
           inkscape:connector-curvature="0"
           style="fill:#ffffff;fill-rule:nonzero;stroke-width:0.185559"
           d="m 64.292364,52.000021 c -7.890259,0 -14.292353,6.32578 -14.292353,14.121722 v 98.141547 33.61501 c 0,7.79595 6.402094,14.12172 14.292353,14.12172 H 169.70766 c 7.89028,0 14.29236,-6.32577 14.29236,-14.12172 V 164.26329 66.121743 c 0,-7.795942 -6.40208,-14.121722 -14.29236,-14.121722 z m 0,2.995339 H 169.70766 c 6.26235,0 11.261,4.938812 11.261,11.126383 v 89.465087 c -2.61637,-3.30981 -6.68367,-5.44526 -11.261,-5.44526 H 64.292364 c -4.577309,0 -8.644593,2.13545 -11.261,5.44526 V 66.121743 c 0,-6.187571 4.998666,-11.126383 11.261,-11.126383 z m 0,98.14155 H 169.70766 c 6.26235,0 10.29232,4.67553 10.29232,10.86309 v 32.99999 c -2e-5,6.18757 -4.73767,11 -11.00002,11 H 64.999971 c -6.262333,0 -11.000012,-4.81243 -10.999996,-11 V 164 c 0,-6.18756 4.030055,-10.86309 10.292389,-10.86309 z"
           id="rect7312-4"
           sodipodi:nodetypes="sscsssscsssssscsscssssssssscs" />
        <path
           style="fill:#ffffff;fill-rule:nonzero;stroke-width:1.50742"
           d="m 167.00001,162.4201 c 2.90732,0 5.2695,2.35101 5.2695,5.2303 v 0.11929 c 0,2.8793 -2.36218,5.2303 -5.2695,5.2303 -2.90732,0 -5.26962,-2.351 -5.26962,-5.2303 v -0.11929 c 0,-2.87929 2.3623,-5.2303 5.26962,-5.2303 z"
           id="rect7316-4"
           inkscape:connector-curvature="0"
           sodipodi:nodetypes="sssssss" />
        <path
           style="fill:#ffffff;fill-rule:nonzero;stroke-width:1.50742"
           d="m 95.652573,162.47846 c 0.779836,0.0864 1.364282,0.74628 1.347404,1.52154 v 34.71022 c 0,2.0129 -3.055898,2.0129 -3.055898,0 V 164 c -0.02464,-0.91682 0.787228,-1.63779 1.708494,-1.52154 z m -8.000032,3e-5 c 0.779836,0.0864 1.364282,0.74629 1.347404,1.52155 v 34.71022 c 0.0616,2.0627 -3.099386,2.0627 -3.031751,0 v -34.71022 c -0.02464,-0.90611 0.772444,-1.62196 1.684347,-1.52155 z m -7.999909,4e-5 c 0.779836,0.0864 1.364282,0.74629 1.347404,1.52154 v 34.71022 c 0.0616,2.0627 -3.099386,2.0627 -3.031751,0 v -34.71022 c -0.02464,-0.90611 0.772444,-1.62195 1.684347,-1.52154 z m -8.000155,4e-5 c 0.779836,0.0864 1.364405,0.74628 1.347527,1.52154 v 34.71022 c 0.0616,2.06014 -3.096675,2.06014 -3.031874,0 v -34.71022 c -0.02464,-0.90611 0.772444,-1.62195 1.684347,-1.52154 z m -8.000032,-1.1e-4 c 0.779836,0.0864 1.364405,0.74628 1.347527,1.52154 v 34.71022 c 0.0616,2.06015 -3.096675,2.06015 -3.031874,0 V 164 c -0.02464,-0.90611 0.772444,-1.62195 1.684347,-1.52154 z"
           id="path7359-7"
           inkscape:connector-curvature="0"
           sodipodi:nodetypes="ccsscccccccccccccccccccccccccc" />
      </g>
      <path
         style="fill:#ffffff;fill-rule:nonzero"
         d="m 214.2815,20.07927 c -5.52,0.36326 -8.7584,3.47967 -8.7584,8.43246 0,4.43345 3.2458,8.13054 7.4769,8.85937 V 51 c 0,9.91268 -7.251,17.99291 -17,18 l -15.3901,0.0264 v 2.96484 H 196 c 11.4103,-0.008 20.0341,-9.52115 20.0341,-20.99121 v -13.6289 c 4.2339,-0.72648 7.4827,-4.42393 7.4827,-8.85937 0,-4.95279 -3.4428,-8.31926 -9.2353,-8.43249 z m 0.406,2.98323 c 3.3303,0 5.8304,2.11776 5.8304,5.44923 0,3.33147 -2.6676,6 -5.9979,6 -3.3304,0 -5.9979,-2.66853 -5.9979,-6 0,-3.33147 2.835,-5.44923 6.1654,-5.44923 z M 223,95 c -4.4432,-1e-5 -8.6177,3.4839 -9,7 h -34 l 1,4 h 33 c 0.7202,4.24251 4.561,7.00001 9,7 4.9511,1e-5 9,-4.04722 9,-9 0,-4.95279 -4.0489,-9.00001 -9,-9 z m 0,3 c 3.3304,0 6,2.66853 6,6 0,3.33146 -2.6696,6 -6,6 -3.3303,0 -6,-2.66854 -6,-6 0,-3.33147 2.6697,-6 6,-6 z m -42,37 v 4 h 15 c 9.749,0.007 17,8.08732 17,18 v 13 c -4.2311,0.72882 -7.0144,4.57086 -7.0144,9.00433 0,4.9528 4.0457,9.00001 8.9969,8.99999 4.9511,2e-5 8.9968,-4.04719 8.9968,-8.99999 0,-4.43545 -2.7454,-8.27785 -6.9793,-9.00433 v -14 c 0,-11.47007 -9.5897,-20.99166 -21,-21 z m 33.9825,38.00433 c 3.3303,0 5.9979,2.66852 5.9979,6 0,3.33148 -2.6676,6 -5.9979,6 -3.3304,0 -5.9979,-2.66852 -5.9979,-6 0,-3.33148 2.6675,-6 5.9979,-6 z"
         id="circle7536"
         inkscape:connector-curvature="0"
         sodipodi:nodetypes="cscsccccscscscsssccccccscscssscscscscscsccsssss" />
    </g>
  </g>
  <g
     inkscape:groupmode="layer"
     id="layer10"
     inkscape:label="Sheet"
     style="display:inline">
    <use
       href="#file"
       x="0"
       y="0"
       id="use2" />
    <use
       href="#disc"
       x="256"
       y="0"
       id="use2" />
    <use
       href="#folder"
       x="512"
       y="0"
       id="use3" />
    <use
       href="#folder-up"
       x="768"
       y="0"
       id="use4" />
    <use
       href="#drive"
       x="1024"
       y="0"
       id="use5" />
    <use
       href="#drive-local"
       x="1280"
       y="0"
       id="use6" />
    <use
       href="#drive-network"
       x="1536"
       y="0"
       id="use7" />
  </g>
</svg>
