<svg height="1600" viewBox="0 0 1600 1600" width="1600"
  xmlns="http://www.w3.org/2000/svg"
  xmlns:inkscape="http://www.inkscape.org/namespaces/inkscape"
  xmlns:sodipodi="http://sodipodi.sourceforge.net/DTD/sodipodi-0.dtd">
  <sodipodi:namedview pagecolor="#303030" showgrid="true">
    <inkscape:grid id="grid5" units="px" spacingx="100" spacingy="100" color="#4772b3" opacity="0.2" visible="true" />
  </sodipodi:namedview>
  <g fill="#fff">
    <path d="M349.414 107.563c-11.724.1-22.936 4.82-31.25 13.086l-200 200c-17.593 17.578-17.593 46.094 0 63.672l200 200c17.578 17.593 46.094 17.593 63.672 0l200-200c17.593-17.578 17.593-46.094 0-63.672l-200-200a45.015 45.015 0 0 0-32.422-13.086zm1100 0c-11.724.1-22.936 4.82-31.25 13.086l-200 200c-17.593 17.578-17.593 46.094 0 63.672l200 200c17.578 17.593 46.094 17.593 63.672 0l200-200c17.593-17.578 17.593-46.094 0-63.672l-200-200a45.015 45.015 0 0 0-32.422-13.086z"/>
    <path d="M512.109 102.485 656.055 246.43c58.556 58.58 58.556 153.53 0 212.11L512.109 602.485h775.782L1143.945 458.54c-58.556-58.58-58.556-153.53 0-212.11l143.946-143.945z" opacity=".5"/>
  </g>
  <path d="M950 1100.001c-27.613 0-49.997 22.387-50 50v200c.003 27.613 22.387 49.997 50 50h600c27.613 0 49.997-22.387 50-50v-200c0-27.613-22.387-49.997-50-50z" style="stroke-width:100;fill:#fff"/>
  <path d="M400 800v450c.003 27.613 22.387 49.997 50 50h350v-100H500V800z" opacity=".6" style="stroke-width:100;fill:#fff"/>
</svg>
