<svg id="svg1" height="1500" viewBox="0 0 1600 1500" width="1600" xmlns="http://www.w3.org/2000/svg" xmlns:inkscape="http://www.inkscape.org/namespaces/inkscape" xmlns:sodipodi="http://sodipodi.sourceforge.net/DTD/sodipodi-0.dtd"><sodipodi:namedview pagecolor="#303030" showgrid="true"><inkscape:grid id="grid5" units="px" spacingx="100" spacingy="100" color="#4772b3" opacity="0.2" visible="true" /></sodipodi:namedview><g id="blender_collection_color_02" fill="#b0b0b0" transform="matrix(1 0 0 .87229026 1.531019 12.839044)"><path id="path1-5" d="m1455.5 512.00496c-.2761.00003-.5099.21891-.5099.49504v2.99504c0 .27613.2214.49649.4975.49652h.5l.012 9.5029c.0003.27613.2239.49997.5.5l10.9802-.005c.2761-.00003.4997-.22387.5-.5v-9.49943h.5124c.2761-.00003.4876-.21394.4876-.49007v-3c0-.27613-.2016-.49501-.4777-.49504z" transform="matrix(100 0 0 100 -145400.01 -51100)"/></g><g id="blender_text" fill="#e0e0e0" transform="matrix(1 0 0 .99669175 0 .330143)"><path id="path1" d="m1455.5 512.00496c-.2761.00003-.5099.21891-.5099.49504v3.01408c0 .27613.2214.50642.4975.50645h.5l.012 8.52675c.0004.27613.2239.49997.5.5h10.9901c.2761-.00003.4997-.22387.5-.5v-8.53176h.5124c.2761-.00003.4876-.22883.4876-.50496v-3.01056c0-.27613-.2115-.49501-.4876-.49504zm.4895 1.00186h12v1.99938l-12 .00062zm.9981 3.01222 10-.004-.0004 8.03424-10-.002z" transform="matrix(100 0 0 100 -145398.96 -51100.702)"/></g><path id="handhold" d="m699.94872 699.71519c-136.44824.30561-129.50035 200.27881 0 200h199.88164c133.05944-.0751 132.82894-199.92789 0-200z" opacity=".7" stroke-width=".995635"/><path id="path2" d="m199.68434 500.01764 1200.41116-.23051-.3613 100.06751-1200.04986.1101z" fill-opacity=".1" fill-rule="evenodd" stroke-width="25"/></svg>