<svg id="svg1" height="1600" viewBox="0 0 1600 1600" width="1600" xmlns="http://www.w3.org/2000/svg" xmlns:xlink="http://www.w3.org/1999/xlink"><linearGradient id="linearGradient4" gradientTransform="matrix(1 0 0 1.4331821 0 -216.59103)" gradientUnits="userSpaceOnUse" x1="199.96609" x2="199.82471" y1="500.1142" y2="623.76721"><stop id="stop3" offset="0" stop-opacity=".529605"/><stop id="stop4" offset="1" stop-opacity="0"/></linearGradient><g id="blender.collection_color_02" fill="#b0b0b0" transform="translate(1.531019 .005237)"><path id="path1-5" d="m1455.5 512.00496c-.2761.00003-.5099.21891-.5099.49504v2.99504c0 .27613.2214.49649.4975.49652h.5l.012 9.5029c.0003.27613.2239.49997.5.5l10.9802-.005c.2761-.00003.4997-.22387.5-.5v-9.49943h.5124c.2761-.00003.4876-.21394.4876-.49007v-3c0-.27613-.2016-.49501-.4777-.49504z" fill="#b0b0b0" transform="matrix(100 0 0 100 -145400.01 -51100)"/></g><g id="blender.text" fill="#fff" opacity=".8"><path id="path1" d="m1455.5 512.00496c-.2761.00003-.5099.21891-.5099.49504v3c0 .27613.2214.50642.4975.50645h.5l.012 9.49794c.0004.27613.2239.49997.5.5h10.9901c.2761-.00003.4997-.22387.5-.5v-9.49943h.5124c.2761-.00003.4876-.22883.4876-.50496v-3c0-.27613-.2115-.49501-.4876-.49504zm.4895 1.00186h12v1.99938l-12 .00062zm.9981 2.99814h10l-.0004 9.00191-10-.002z" fill="#fff" transform="matrix(100 0 0 100 -145398.96 -51100.702)"/></g><path id="handhold" d="m649.26817 699.71519c-135.04456 2.06022-128.09667 199.92789 0 200h301.48358c133.05945-.0751 131.07435-199.92789 0-200z" opacity=".7" stroke-width=".995635"/><path id="path2" d="m199.84202 500h1200.10678l.124 197.03215h-1199.98264z" fill="url(#linearGradient4)" fill-rule="evenodd" opacity=".7" stroke-width="29.9289"/></svg>