<svg id="svg4185" height="1300" viewBox="0 0 1600 1300" width="1600" xmlns="http://www.w3.org/2000/svg" xmlns:xlink="http://www.w3.org/1999/xlink" xmlns:inkscape="http://www.inkscape.org/namespaces/inkscape" xmlns:sodipodi="http://sodipodi.sourceforge.net/DTD/sodipodi-0.dtd"><sodipodi:namedview pagecolor="#303030" showgrid="true"><inkscape:grid id="grid5" units="px" spacingx="100" spacingy="100" color="#4772b3" opacity="0.2" visible="true" /></sodipodi:namedview><linearGradient id="linearGradient2" gradientUnits="userSpaceOnUse" x1="28.041027" x2="27.029646" y1="718.72998" y2="804.31921"><stop id="stop1" offset="0" stop-color="#e5e5e5"/><stop id="stop2" offset="1" stop-color="#999"/></linearGradient><linearGradient id="linearGradient4" gradientUnits="userSpaceOnUse" x1="28.041027" x2="27.029646" y1="778.33496" y2="1042.6545"><stop id="stop3" offset="0" stop-color="#fff"/><stop id="stop4" offset="1" stop-color="#ccc"/></linearGradient><g id="layer1" transform="translate(0 -717.36213)"><g id="g4864" transform="matrix(3.40716 0 0 3.4049685 6.883458 -1625.5999)"><path id="path3350" d="m46.165476 717.44637h93.219344c15.7258-.82304 18.61638 5.95025 22.81669 10.88994l14.74763 16.42645c1.19974 1.50075 2.35846 2.05667 4.90331 2.04456h237.11359c11.80105 0 18.96301 7.94778 18.96301 18.963v264.89788c0 5.5144-4.43941 9.9539-9.95382 9.9539h-390.818934c-5.51443 0-9.953839-4.4395-9.953839-9.9539v-294.25882c0-10.22939 7.685845-18.96301 18.963019-18.96301z" fill="url(#linearGradient2)"/><path id="rect3347" d="m46.165476 776.17182h372.800564c11.80105 0 18.96301 7.94779 18.96301 18.96301v235.53337c0 5.5144-4.43941 9.9539-9.95382 9.9539h-390.818934c-5.51443 0-9.953839-4.4395-9.953839-9.9539v-235.53337c0-10.22939 7.685845-18.96301 18.963019-18.96301z" fill="url(#linearGradient4)"/><g fill-opacity=".15"><path id="rect4358" d="m45.643295 1008.0261h374.05457v3.143315h-374.05457z"/><path id="rect4360" d="m45.538475 978.53735h374.05457v3.143315h-374.05457z"/><path id="rect4362" d="m45.46962 993.42914h374.05457v3.143315h-374.05457z"/></g></g></g></svg>