<?xml version="1.0" encoding="UTF-8" standalone="no"?>
<svg
   height="1600"
   viewBox="0 0 1600 1600"
   width="1600"
   version="1.1"
   id="svg3"
   sodipodi:docname="empty_axis.svg"
   inkscape:version="1.3.2 (091e20ef0f, 2023-11-25)"
   xmlns:inkscape="http://www.inkscape.org/namespaces/inkscape"
   xmlns:sodipodi="http://sodipodi.sourceforge.net/DTD/sodipodi-0.dtd"
   xmlns="http://www.w3.org/2000/svg"
   xmlns:svg="http://www.w3.org/2000/svg">
  <defs
     id="defs3">
    <inkscape:path-effect
       effect="fillet_chamfer"
       id="path-effect9"
       is_visible="true"
       lpeversion="1"
       nodesatellites_param="F,0,0,1,0,51.7248,0,1 @ F,0,0,1,0,73.293595,0,1 @ F,0,0,1,0,63.489488,0,1 @ F,0,0,1,0,68.391642,0,1"
       radius="0"
       unit="px"
       method="auto"
       mode="F"
       chamfer_steps="1"
       flexible="false"
       use_knot_distance="true"
       apply_no_radius="true"
       apply_with_radius="true"
       only_selected="false"
       hide_knots="false" />
  </defs>
  <sodipodi:namedview
     pagecolor="#303030"
     showgrid="true"
     id="namedview1"
     bordercolor="#000000"
     borderopacity="0.25"
     inkscape:showpageshadow="2"
     inkscape:pageopacity="0.0"
     inkscape:pagecheckerboard="0"
     inkscape:deskcolor="#d1d1d1"
     inkscape:zoom="0.32"
     inkscape:cx="993.75"
     inkscape:cy="778.125"
     inkscape:window-width="2560"
     inkscape:window-height="1358"
     inkscape:window-x="0"
     inkscape:window-y="32"
     inkscape:window-maximized="1"
     inkscape:current-layer="layer1">
    <inkscape:grid
       id="grid5"
       units="px"
       spacingx="100"
       spacingy="100"
       color="#4772b3"
       opacity="0.2"
       visible="true"
       originx="0"
       originy="0" />
  </sodipodi:namedview>
  <g
     fill="#ffffff"
     id="g3"
     style="display:none">
    <g
       id="g5">
      <g
         id="g4">
        <g
           enable-background="new"
           opacity="0.99"
           transform="matrix(100,0,0,100,-48800,-19899.963)"
           id="g2">
          <path
             d="M 495.49219,199.99219 A 0.50005,0.50005 0 0 0 495,200.5 v 6.79297 l -3.85352,3.85351 a 0.50005,0.50005 0 1 0 0.70704,0.70704 L 495.70703,208 H 502.5 a 0.50005,0.50005 0 1 0 0,-1 H 496 v -6.5 a 0.50005,0.50005 0 0 0 -0.50781,-0.50781 z"
             opacity="1"
             id="path1" />
          <path
             d="m 499.49023,202.99609 a 0.50005,0.50005 0 0 0 -0.34375,0.15039 l -2,2 a 0.50005,0.50005 0 1 0 0.70704,0.70704 l 2,-2 a 0.50005,0.50005 0 0 0 -0.36329,-0.85743 z M 489.5,207 a 0.50005,0.50005 0 1 0 0,1 h 3.25 a 0.50005,0.50005 0 1 0 0,-1 z m 5.99219,2.74219 A 0.50005,0.50005 0 0 0 495,210.25 v 3.25 a 0.50005,0.50005 0 1 0 1,0 v -3.25 a 0.50005,0.50005 0 0 0 -0.50781,-0.50781 z"
             opacity="0.6"
             id="path2" />
        </g>
      </g>
    </g>
  </g>
  <g
     inkscape:groupmode="layer"
     id="layer1"
     inkscape:label="Layer 1">
    <circle
       style="fill:none;fill-opacity:0.605442;stroke:#ffffff;stroke-width:120;stroke-linecap:round;stroke-linejoin:round;stroke-dasharray:none;stroke-opacity:1"
       id="path6"
       r="278.05215"
       cy="401.04257"
       cx="466.14648" />
    <path
       d="m 1168.2742,242.27721 c -27.0484,0.17536 -58.5079,56.22947 -58.5079,56.22947 L 894.69183,671.02612 c 0,0 -25.41163,49.87855 -14.29292,71.48589 10.71634,20.82526 64.07048,28.84053 64.07048,28.84053 h 453.88331 c 0,0 54.4956,-4.45349 65.1917,-25.14299 10.5967,-20.49715 -17.0196,-67.09777 -17.0196,-67.09777 L 1224.9707,295.36863 c 0,0 -30.8058,-53.25927 -56.6965,-53.09142 z"
       style="fill:none;fill-opacity:0.819728;stroke:#ffffff;stroke-width:120;stroke-linecap:round;stroke-linejoin:round;stroke-dasharray:none;stroke-opacity:0.802721"
       id="path8"
       sodipodi:nodetypes="accaccacca" />
    <path
       d="m 615.59766,1140.1135 v 245.171 a 73.293595,73.293595 45 0 0 73.29359,73.2936 h 233.40832 a 63.489488,63.489488 135 0 0 63.48949,-63.4895 v -238.3083 a 68.391642,68.391642 45 0 0 -68.39164,-68.3916 H 667.32246 a 51.7248,51.7248 135 0 0 -51.7248,51.7248 z"
       style="fill:none;fill-opacity:1;stroke:#ffffff;stroke-width:86.32274391;stroke-linecap:round;stroke-linejoin:round;stroke-dasharray:none;stroke-opacity:0.588435"
       id="path9"
       inkscape:path-effect="#path-effect9"
       inkscape:original-d="m 615.59766,1088.3887 v 370.1894 h 370.1914 v -370.1894 z"
       transform="matrix(1.3901319,0,0,1.3901319,-342.3105,-547.34054)" />
  </g>
</svg>
