<?xml version="1.0" encoding="UTF-8" standalone="no"?>
<svg
   height="1800"
   viewBox="0 0 1800 1800"
   width="1800"
   version="1.1"
   id="svg1"
   sodipodi:docname="key_windows.svg"
   inkscape:version="1.3.2 (091e20e, 2023-11-25, custom)"
   xmlns:inkscape="http://www.inkscape.org/namespaces/inkscape"
   xmlns:sodipodi="http://sodipodi.sourceforge.net/DTD/sodipodi-0.dtd"
   xmlns="http://www.w3.org/2000/svg"
   xmlns:svg="http://www.w3.org/2000/svg">
  <defs
     id="defs1" />
  <sodipodi:namedview
     pagecolor="#303030"
     showgrid="true"
     id="namedview1"
     bordercolor="#000000"
     borderopacity="0.25"
     inkscape:showpageshadow="2"
     inkscape:pageopacity="0.0"
     inkscape:pagecheckerboard="0"
     inkscape:deskcolor="#d1d1d1"
     inkscape:zoom="0.25000001"
     inkscape:cx="1056"
     inkscape:cy="921.99996"
     inkscape:window-width="1920"
     inkscape:window-height="1009"
     inkscape:window-x="1912"
     inkscape:window-y="-8"
     inkscape:window-maximized="1"
     inkscape:current-layer="svg1">
    <inkscape:grid
       id="grid5"
       units="px"
       spacingx="100"
       spacingy="100"
       color="#4772b3"
       opacity="0.2"
       visible="true"
       originx="0"
       originy="0" />
  </sodipodi:namedview>
  <g
     fill="#ffffff"
     id="g1">
    <path
       d="m 31.484375,450.99731 c -1.92123,0 -3.483002,1.56042 -3.483002,3.48165 v 9.03666 c 0,1.92123 1.561772,3.48168 3.483002,3.48168 h 9.095609 c 1.92123,0 3.485856,-1.56045 3.485856,-3.48168 v -9.03666 c 0,-1.92123 -1.564626,-3.48165 -3.485856,-3.48165 z m 0,1.00001 h 9.095609 c 1.38453,0 2.481865,1.09711 2.481865,2.48164 v 9.03666 c 0,1.38453 -1.097335,2.48168 -2.481865,2.48168 h -9.095609 c -1.38453,0 -2.479002,-1.09715 -2.479002,-2.48168 v -9.03666 c 0,-1.38453 1.094472,-2.48164 2.479002,-2.48164 z"
       transform="matrix(99.598235,0,0,100,-2688.8846,-44999.729)"
       id="path1"
       sodipodi:nodetypes="ssssssssssssssssss" />
  </g>
  <path
     d="m 400.0937,550.28924 400.01861,-59.75238 -0.20817,409.79179 -399.82393,-0.2117 z m 400.01963,449.98996 -0.0707,309.7546 L 400.023,1249.9537 400,999.97342 Z m 99.58578,-524.68165 500.35739,-75.4511 0.098,499.8465 -500.45529,0.2104 z m 500.38569,524.29467 -0.068,400.21448 -500.1212,-75.4842 0.027,-324.63658 z"
     id="path1-0"
     style="fill:#ffffff;stroke-width:11.4704"
     sodipodi:nodetypes="cccccccccccccccccccc" />
</svg>
