<?xml version="1.0" encoding="UTF-8" standalone="no"?>
<svg
   height="1800"
   viewBox="0 0 1800 1800"
   width="1800"
   version="1.1"
   id="svg1"
   sodipodi:docname="key_windows_filled.svg"
   inkscape:version="1.3.2 (091e20e, 2023-11-25, custom)"
   xmlns:inkscape="http://www.inkscape.org/namespaces/inkscape"
   xmlns:sodipodi="http://sodipodi.sourceforge.net/DTD/sodipodi-0.dtd"
   xmlns="http://www.w3.org/2000/svg"
   xmlns:svg="http://www.w3.org/2000/svg">
  <defs
     id="defs1" />
  <sodipodi:namedview
     pagecolor="#303030"
     showgrid="true"
     id="namedview1"
     bordercolor="#000000"
     borderopacity="0.25"
     inkscape:showpageshadow="2"
     inkscape:pageopacity="0.0"
     inkscape:pagecheckerboard="0"
     inkscape:deskcolor="#d1d1d1"
     inkscape:zoom="0.25000001"
     inkscape:cx="1056"
     inkscape:cy="921.99996"
     inkscape:window-width="1920"
     inkscape:window-height="1009"
     inkscape:window-x="1912"
     inkscape:window-y="-8"
     inkscape:window-maximized="1"
     inkscape:current-layer="svg1">
    <inkscape:grid
       id="grid5"
       units="px"
       spacingx="100"
       spacingy="100"
       color="#4772b3"
       opacity="0.2"
       visible="true"
       originx="0"
       originy="0" />
  </sodipodi:namedview>
  <g
     fill="#ffffff"
     id="g1">
    <path
       d="m 31.484375,450.99731 c -1.92123,0 -3.483002,1.56042 -3.483002,3.48165 v 9.03666 c 0,1.92123 1.561772,3.48168 3.483002,3.48168 h 9.095609 c 1.92123,0 3.485856,-1.56045 3.485856,-3.48168 v -9.03666 c 0,-1.92123 -1.564626,-3.48165 -3.485856,-3.48165 z m 0,1.00001 h 9.095609 c 1.38453,0 2.481865,1.09711 2.481865,2.48164 v 9.03666 c 0,1.38453 -1.097335,2.48168 -2.481865,2.48168 h -9.095609 c -1.38453,0 -2.479002,-1.09715 -2.479002,-2.48168 v -9.03666 c 0,-1.38453 1.094472,-2.48164 2.479002,-2.48164 z"
       transform="matrix(99.598235,0,0,100,-2688.8846,-44999.729)"
       id="path1"
       sodipodi:nodetypes="ssssssssssssssssss" />
  </g>
  <path
     id="path1-8"
     style="fill:#ffffff;stroke-width:1.00126;fill-opacity:0.80000001"
     d="M 446.56445 199.33398 C 308.49367 199.33398 199.34766 309.18287 199.34766 447.81055 L 199.34766 1352.6172 C 199.34766 1491.2448 308.49367 1601.0996 446.56445 1601.0996 L 1353.6152 1601.0996 C 1491.6859 1601.0996 1601.1172 1491.2448 1601.1172 1352.6172 L 1601.1172 447.81055 C 1601.1172 309.18287 1491.6859 199.33398 1353.6152 199.33398 L 446.56445 199.33398 z M 1400.0566 400.14648 L 1400.1543 899.99219 L 899.69922 900.20312 L 899.69922 475.59766 L 1400.0566 400.14648 z M 800.11328 490.53711 L 799.9043 900.32812 L 400.08008 900.11719 L 400.09375 550.28906 L 800.11328 490.53711 z M 1400.084 999.89258 L 1400.0176 1400.1074 L 899.89648 1324.623 L 899.92188 999.98633 L 1400.084 999.89258 z M 400 999.97266 L 800.11328 1000.2793 L 800.04297 1310.0332 L 400.02344 1249.9531 L 400 999.97266 z " />
</svg>
