<svg id="svg2" height="1200" viewBox="0 0 1200 1200" width="1200" xmlns="http://www.w3.org/2000/svg" xmlns:inkscape="http://www.inkscape.org/namespaces/inkscape" xmlns:sodipodi="http://sodipodi.sourceforge.net/DTD/sodipodi-0.dtd"><sodipodi:namedview pagecolor="#303030" showgrid="true"><inkscape:grid id="grid5" units="px" spacingx="100" spacingy="100" color="#4772b3" opacity="0.2" visible="true" /></sodipodi:namedview><g id="widget.text" fill="#fff"><path id="path1-1" d="m599.32872 102.79775c-275.55 0-500.000001 224.45-500.000001 500s224.450001 500.00005 500.000001 500.00005 499.99998-224.45005 499.99998-500.00005-224.44998-500-499.99998-500zm0 100c221.506 0 400 178.494 400 400s-178.494 400.00005-400 400.00005-400-178.49405-400-400.00005 178.494-400 400-400z" stroke-width="100"/></g><g id="theme.red_alert" fill="#f00"><path id="path1" d="m599.6025 202.80574c-220.28631 0-399.72115 179.55774-399.72115 399.995 0 220.43727 179.43484 399.99506 399.72115 399.99506 220.2863 0 399.72111-179.55779 399.72111-399.99506 0-220.43726-179.43481-399.995-399.72111-399.995z" stroke-width="79.9717"/></g></svg>