<svg id="svg4185" height="1600" viewBox="0 0 1600 1600" width="1600" xmlns="http://www.w3.org/2000/svg" xmlns:inkscape="http://www.inkscape.org/namespaces/inkscape" xmlns:sodipodi="http://sodipodi.sourceforge.net/DTD/sodipodi-0.dtd"><sodipodi:namedview pagecolor="#303030" showgrid="true"><inkscape:grid id="grid5" units="px" spacingx="100" spacingy="100" color="#4772b3" opacity="0.2" visible="true" /></sodipodi:namedview><g fill="#fff" fill-rule="evenodd" stroke-width="24.2821">

<path id="1" d="m1210.5601 286.73933-254.81138 341.78842c-10.8098 14.49949-19.6218 18.67099-35.4598 9.4996l-40.16249-23.2572c-16.11721-9.3329-19.17601-16.7152-10.90691-35.8989l168.72568-391.4301c14.9828-34.759 38.0391-36.4388 67.8276-19.24041l87.1471 50.3144c30.0771 17.58151 39.8756 38.39889 17.6402 68.22419z" opacity="0"/>

<path id="2" d="m1411.8458 559.99118-391.5675 168.59176c-16.6113 7.15206-26.32825 6.35872-35.45855-9.50323l-23.1532-40.22262c-9.2914-16.14111-8.2493-24.0638 8.5038-36.54271l341.83555-254.62572c30.355-22.6107 51.1622-12.5373 68.3607 17.25122l50.3144 87.1471c17.2568 30.2645 15.3339 53.19218-18.8352 67.90399z" opacity=".091"/>

<path id="3" d="m1449.2631 896.81688-423.4032-49.7792c-17.9618-2.1117-25.98029-7.6574-25.95659-25.9592l.06-46.4104c.024-18.6243 4.88769-24.9645 25.63569-27.3951l423.3514-49.5942c37.5936-4.404 50.5765 14.7234 50.5765 49.1202v100.6288c-.1875 34.8383-13.3166 53.7329-50.2638 49.3891z" opacity=".182"/>

<path id="4" d="m1312.5782 1210.3178-341.78852-254.81174c-14.49951-10.8098-18.67101-19.6218-9.4996-35.4598l23.2572-40.1625c9.3329-16.1172 16.71522-19.176 35.89902-10.9069l391.4301 168.72594c34.759 14.9828 36.4388 38.0391 19.2404 67.8276l-50.3144 87.1471c-17.5815 30.0771-38.3989 39.8757-68.2242 17.6403z" opacity=".273"/>

<path id="5" d="m1037.2414 1411.7738-168.5918-391.5675c-7.15206-16.6113-6.35873-26.32861 9.50322-35.45891l40.22263-23.1532c16.1411-9.2914 24.0638-8.2493 36.5427 8.5038l254.62575 341.83601c22.6107 30.355 12.5373 51.1622-17.2512 68.3606l-87.1471 50.3144c-30.2645 17.2568-53.1922 15.334-67.904-18.8352z" opacity=".364"/>

<path id="6" d="m700.37832 1449.4597 49.77914-423.4032c2.11175-17.9618 7.6574-25.9805 25.9592-25.9568l46.4104.06c18.6243.024 24.96454 4.8879 27.3951 25.6359l49.59424 423.3514c4.40397 37.5936-14.72344 50.5765-49.12024 50.5765h-100.6288c-34.83828-.1875-53.73289-13.3166-49.38904-50.2638z" opacity=".455"/>

<path id="7" d="m388.67336 1311.7292 254.81161-341.7882c10.80972-14.4995 19.62175-18.67108 35.45972-9.49965l40.16259 23.25716c16.11711 9.33293 19.17597 16.71509 10.9069 35.89869l-168.72584 391.4302c-14.98285 34.759-38.03912 36.4388-67.82762 19.2404l-87.1471-50.3144c-30.07709-17.5815-39.87575-38.3989-17.64026-68.2242z" opacity=".545"/>

<path id="8" d="m187.07629 1037.3849 391.56753-168.59145c16.61125-7.15206 26.32847-6.35873 35.45877 9.50322l23.15323 40.22259c9.29137 16.14112 8.24923 24.06387-8.50379 36.54277l-341.83598 254.62547c-30.35503 22.6107-51.16224 12.5373-68.36064-17.2512l-50.31441-87.1471c-17.25675-30.2646-15.33394-53.1923 18.83521-67.9041z" opacity=".636"/>

<path id="9" d="m150.58996 700.35579 423.4032 49.7792c17.9618 2.1117 25.9802 7.6574 25.9566 25.9592l-.06 46.4104c-.024 18.6243-4.8877 24.9645-25.6357 27.3951l-423.3514 49.5942c-37.59355 4.404-50.57644-14.7234-50.57644-49.1202v-100.6288c.1875-34.8383 13.31659-53.7329 50.26374-49.3891z" opacity=".727"/>

<path id="10" d="m287.8479 388.68079 341.78841 254.8116c14.49949 10.80973 18.671 19.62177 9.49935 35.4598l-23.25721 40.16259c-9.33289 16.11711-16.71519 19.17597-35.8988 10.90691l-391.42994-168.72593c-34.75901-14.98284-36.43879-38.03911-19.2404-67.82761l50.3144-87.1471c17.58149-30.07708 38.3989-39.87574 68.22419-17.64026z" opacity=".818"/>

<path id="11" d="m561.61074 187.49484 168.59158 391.56754c7.15211 16.61125 6.35882 26.32847-9.50319 35.45876l-40.2226 23.15324c-16.1411 9.29136-24.06379 8.24924-36.5427-8.50377l-254.62569-341.836c-22.61069-30.35502-12.5373-51.16224 17.25119-68.36064l87.14711-50.3144c30.26459-17.25676 53.19232-15.33397 67.9041 18.83521z" opacity=".909"/>

<path id="12" d="m899.72379 150.14216-49.77914 423.4032c-2.11175 17.9618-7.6574 25.98045-25.9592 25.95675l-46.4104-.06c-18.6243-.024-24.96454-4.8879-27.3951-25.63585l-49.59424-423.3514c-4.40397-37.5936 14.72344-50.576493 49.12024-50.576493h100.6288c34.83828.187503 53.73289 13.316593 49.38904 50.263793z" opacity="1"/></g></svg>